<svg width="550" height="361" viewBox="0 0 550 361" fill="none" xmlns="http://www.w3.org/2000/svg">
<path fill-rule="evenodd" clip-rule="evenodd" d="M355.414 0C372.187 0.176464 381.191 1.72592 394.801 6.3291L396.133 6.78418L396.187 6.80273L396.24 6.82227C411.409 12.4209 419.451 16.4859 432.111 25.2832C442.21 32.2091 447.453 36.7778 454.531 43.3906L457.886 46.542L458.057 46.7383C478.751 70.4846 486.998 85.1183 495.203 110.543L495.998 113.038L496.065 113.252L496.114 113.471C501.062 135.632 502.376 150.157 502.674 168.929C502.848 179.846 502.119 190.908 499.877 201.789C495.26 224.205 488.729 239.258 476.594 261.163L476.486 261.359L476.361 261.546C464.186 279.695 462.791 302.23 477.34 314.527C480.307 317.034 483.524 319.616 487.129 322.412C489.418 324.187 491.846 325.757 494.383 327.074C512.83 336.65 524.237 339.876 542.553 342.788C546.765 343.458 549.938 347.087 549.938 351.422C549.938 356.319 545.891 360.293 540.95 360.13C521.798 359.498 510.067 357.68 490.675 352.476L490.588 352.452L490.501 352.426C470.681 346.369 459.609 342.137 440.034 333.272C433.756 330.625 428.802 328.442 423.711 325.63C416.457 321.623 408.283 320.625 401.347 323.553L401.307 323.569L401.267 323.585C396.168 325.64 391.838 327.192 387.644 328.479C373.156 332.928 358.026 333.711 343.55 333.711H335.133L334.978 333.702C321.43 332.901 310.518 331.639 299.424 328.573C288.324 325.505 277.273 320.696 263.319 313.031L263.012 312.863L262.73 312.655C247.732 301.612 239.696 294.658 227.19 280.505L226.978 280.264L226.795 280C216.325 264.769 210.727 256.004 202.092 240.002L202.088 239.995L202.085 239.989C184.59 207.352 176.102 188.08 161.744 153.501L130.719 82.6738C129.284 79.3993 125.095 78.8558 122.804 81.1904L121.204 83.9854L92.2017 146.611L92.2007 146.61L79.1001 175.274C77.9407 177.811 75.9182 179.854 73.3941 181.039C63.4147 185.725 53.0428 175.358 57.7241 165.376L131.9 7.23438C133.816 3.15017 137.921 0.542076 142.432 0.541992C147.002 0.542244 151.149 3.21831 153.032 7.38281L253.823 230.37C259.381 241.623 263.22 248.146 270.754 258.75L272.316 260.934L272.332 260.954L272.346 260.976C277.455 268.223 281.348 273.192 285.738 277.814C292.963 285.422 301.405 291.947 310.559 297.192C310.608 297.221 310.657 297.249 310.705 297.276C317.68 300.954 321.739 302.743 328.529 305.088L329.93 305.567L329.954 305.575C329.903 305.558 330.003 305.593 330.351 305.678C330.658 305.753 331.06 305.844 331.542 305.946C332.503 306.151 333.703 306.383 334.954 306.606C337.537 307.067 339.892 307.405 340.872 307.454H349.252L361.271 306.933C371.851 305.026 376.53 303.553 382.401 299.927C382.41 299.878 382.42 299.801 382.416 299.692C382.406 299.475 382.344 299.208 382.216 298.946C382.09 298.688 381.928 298.49 381.765 298.357L349.31 271.899L355.4 263.301C363.321 268.143 367.834 269.857 377.278 271.242L377.359 271.254L377.44 271.269C381.716 272.032 384.755 272.25 387.629 272.032C390.509 271.814 393.486 271.138 397.647 269.824C402.111 268.315 405.196 266.943 407.945 265.242C410.681 263.549 413.28 261.41 416.666 258.161C423.301 250.934 428.315 242.149 431.974 232.564L439.716 196.085C439.893 193.734 440.018 191.388 440.091 189.057C440.188 185.981 440.203 183.183 440.121 180.844L440.117 180.745V180.647C440.164 159.002 439.546 146.857 437.454 125.133C436.977 122.729 436.512 120.45 436.051 118.271L425.981 83.6035C424.698 80.3024 423.268 76.8266 421.641 73.0488C418.878 67.7754 416.513 63.8067 413.81 59.9756C407.627 51.2115 399.96 43.6148 390.969 38.3076C386.462 35.6469 381.585 33.4327 374.769 30.8359C362.732 26.999 355.626 25.9479 341.955 25.7207C326.627 26.9081 318.359 29.1688 303.715 36.4092C291.869 43.9543 286.058 50.0972 276.191 64.0068C274.821 66.0834 273.667 67.8966 272.637 69.584C267.361 78.2285 263.765 87.9193 260.47 98.082L259.598 100.771L254.258 129.009C253.033 137.793 246.023 143.14 238.99 144.45C231.862 145.778 223.331 143.164 219.644 134.688L207.279 106.251C204.645 100.195 204.659 93.2113 207.623 87.1592C218.745 64.4511 228.076 52.6231 245.533 37.0635L245.66 36.9502L245.794 36.8457C268.418 19.1571 282.955 11.9291 311.073 3.9873L311.141 3.96875L311.21 3.95117C322.86 0.99729 328.627 0.18442 337.348 0.000976562L337.403 0H355.414ZM86.7798 144.104L87.4087 144.393L87.6421 144.499L87.4097 144.392L86.7818 144.101L86.7798 144.104Z" fill="url(#paint0_linear_124_2)"/>
<path fill-rule="evenodd" clip-rule="evenodd" d="M8.2427 279.92C22.6025 268.383 43.9282 278.605 43.9282 297.025C43.9279 309.143 34.1039 318.967 21.9859 318.968C1.26702 318.968 -7.90872 292.897 8.2427 279.92ZM33.3677 297.025C33.3676 287.471 22.3053 282.168 14.857 288.152C6.4793 294.883 11.239 308.407 21.9859 308.407C28.2712 308.407 33.3673 303.311 33.3677 297.025Z" fill="url(#paint1_linear_124_2)"/>
<defs>
<linearGradient id="paint0_linear_124_2" x1="274.969" y1="0" x2="274.969" y2="360.135" gradientUnits="userSpaceOnUse">
<stop offset="0.192308" stop-color="#F5E9D8"/>
<stop offset="1" stop-color="#C08552"/>
</linearGradient>
<linearGradient id="paint1_linear_124_2" x1="274.969" y1="0" x2="274.969" y2="360.135" gradientUnits="userSpaceOnUse">
<stop offset="0.192308" stop-color="#F5E9D8"/>
<stop offset="1" stop-color="#C08552"/>
</linearGradient>
</defs>
</svg>
